<?xml version="1.0" standalone="no"?>
<!DOCTYPE svg PUBLIC "-//W3C//DTD SVG 20010904//EN"
 "http://www.w3.org/TR/2001/REC-SVG-20010904/DTD/svg10.dtd">
<svg version="1.0" xmlns="http://www.w3.org/2000/svg"
 width="1024.000000pt" height="1024.000000pt" viewBox="0 0 1024.000000 1024.000000"
 preserveAspectRatio="xMidYMid meet">
<metadata>
Created by potrace 1.14, written by Peter Selinger 2001-2017
</metadata>
<g transform="translate(0.000000,1024.000000) scale(0.100000,-0.100000)"
fill="#000000" stroke="none">
<path d="M9261 7614 c0 -11 3 -14 6 -6 3 7 2 16 -1 19 -3 4 -6 -2 -5 -13z"/>
<path d="M9273 7465 c0 -27 2 -38 4 -22 2 15 2 37 0 50 -2 12 -4 0 -4 -28z"/>
<path d="M9284 7130 c0 -113 2 -159 3 -102 2 56 2 148 0 205 -1 56 -3 10 -3
-103z"/>
<path d="M3165 7094 c-376 -57 -705 -216 -951 -458 -373 -369 -522 -829 -459
-1418 16 -156 32 -223 82 -358 220 -591 744 -998 1352 -1051 229 -20 434 5
665 82 129 44 197 75 326 152 258 154 415 309 720 710 325 429 341 449 475
631 376 511 635 801 830 932 244 164 409 223 640 231 218 8 370 -29 546 -133
148 -87 299 -236 385 -380 121 -205 176 -465 153 -729 -11 -127 -23 -178 -70
-293 -64 -158 -122 -246 -239 -363 -159 -160 -293 -243 -471 -290 -112 -31
-354 -34 -468 -6 -247 60 -445 173 -645 367 -151 146 -383 423 -486 578 -15
22 -16 21 -79 -75 -36 -54 -107 -158 -158 -231 l-93 -133 86 -114 c161 -215
348 -416 496 -536 361 -290 780 -430 1200 -399 160 11 245 28 399 80 136 45
233 92 346 167 351 232 602 612 693 1048 28 132 37 400 20 556 -55 511 -354
981 -778 1228 -243 141 -502 211 -786 211 -248 0 -494 -63 -761 -195 -151 -75
-334 -207 -480 -347 -114 -108 -357 -403 -485 -588 -52 -74 -133 -187 -180
-250 -132 -176 -290 -390 -342 -463 -71 -97 -300 -369 -398 -471 -224 -233
-482 -389 -725 -437 -112 -22 -361 -17 -459 9 -346 95 -663 417 -754 767 -82
315 -37 639 129 918 76 128 245 287 402 379 228 133 541 165 802 81 300 -96
627 -375 941 -802 l89 -121 23 27 c12 16 52 69 87 118 35 50 105 138 154 197
78 93 88 108 74 119 -8 7 -84 94 -168 194 -197 232 -407 437 -555 543 -211
150 -456 257 -685 298 -86 15 -377 27 -440 18z m75 -206 c17 -5 30 -12 28 -14
-2 -2 -75 -21 -162 -43 -384 -98 -602 -226 -832 -489 -124 -141 -204 -295
-290 -560 -27 -82 -52 -141 -58 -139 -16 5 -45 86 -45 128 -1 50 61 287 99
379 85 206 244 396 443 527 197 130 325 183 527 214 119 19 232 18 290 -3z"/>
<path d="M9280 6500 c0 -134 2 -241 4 -239 8 7 10 468 3 475 -4 4 -7 -102 -7
-236z"/>
<path d="M9283 6200 c0 -25 2 -35 4 -22 2 12 2 32 0 45 -2 12 -4 2 -4 -23z"/>
<path d="M9284 5785 c0 -77 2 -107 3 -67 2 40 2 103 0 140 -2 37 -3 4 -3 -73z"/>
<path d="M9284 5140 c0 -102 2 -143 3 -92 2 50 2 134 0 185 -1 50 -3 9 -3 -93z"/>
<path d="M9282 3940 c0 -14 2 -19 5 -12 2 6 2 18 0 25 -3 6 -5 1 -5 -13z"/>
<path d="M9284 3675 c0 -93 2 -133 3 -88 2 45 2 122 0 170 -1 48 -3 12 -3 -82z"/>
<path d="M9267 2908 c-4 -90 -9 -174 -12 -188 -16 -79 -28 -159 -29 -190 -1
-19 -4 -37 -7 -40 -4 -3 -33 -84 -64 -180 -114 -348 -222 -528 -460 -765 -277
-277 -521 -415 -880 -500 -206 -48 -113 -47 -2693 -46 -1344 0 -2441 -3 -2438
-8 3 -4 19 -6 36 -3 32 5 42 -13 13 -22 -10 -3 12 -4 50 -2 37 2 67 0 67 -4 0
-13 27 -19 138 -29 150 -14 415 -22 788 -22 175 0 335 -4 356 -10 25 -6 44 -6
65 3 20 9 161 13 508 15 1182 7 1349 6 1423 -7 57 -9 88 -9 140 0 45 8 199 11
477 9 226 -1 474 -2 553 -2 89 0 142 -3 142 -10 0 -6 26 -7 73 -3 39 4 89 6
109 6 21 0 55 4 75 9 21 5 83 13 138 16 55 4 104 9 109 13 6 3 22 7 35 8 14 2
35 7 46 13 37 17 114 33 130 27 9 -3 18 1 21 9 4 10 21 15 55 15 34 0 51 5 55
14 3 8 17 17 31 21 14 3 23 9 19 12 -10 10 15 33 36 33 11 0 22 8 25 19 4 17
42 34 78 36 16 1 57 45 43 46 -7 0 9 11 36 24 27 14 57 32 66 40 9 8 19 13 22
10 3 -3 13 6 22 20 9 14 22 25 30 25 17 0 46 33 46 52 0 9 7 18 15 22 8 3 15
12 15 20 0 8 18 32 40 52 22 21 40 45 40 56 0 10 5 19 10 19 6 1 16 2 22 3 7
0 13 8 14 16 2 32 17 60 34 65 10 3 21 17 24 30 4 14 11 25 16 25 6 0 10 9 10
20 0 10 7 23 16 28 17 10 21 16 79 123 21 41 46 100 55 132 8 32 27 70 42 86
20 21 29 43 34 84 4 31 14 64 23 74 23 26 28 93 6 93 -15 0 -15 2 -1 22 9 12
16 33 16 46 0 17 4 23 15 18 19 -7 19 4 -1 32 -15 21 -15 25 0 41 18 20 20 31
6 31 -5 0 -10 -8 -11 -17 0 -12 -2 -13 -6 -5 -3 7 0 19 7 27 9 10 8 19 -1 37
-11 21 -11 22 4 10 13 -11 15 -10 10 9 -4 15 -3 20 5 15 8 -5 12 3 12 26 0 22
-3 29 -9 20 -4 -8 -6 87 -4 212 3 124 3 226 1 226 -3 0 -8 -73 -11 -162z"/>
<path d="M2272 1066 c20 -6 40 -14 44 -18 4 -5 23 -8 43 -7 32 0 29 3 -29 20
-36 10 -72 18 -80 18 -8 -1 2 -6 22 -13z"/>
<path d="M2420 1030 c14 -4 34 -8 45 -8 l20 -1 -20 9 c-11 5 -31 8 -45 8 l-25
0 25 -8z"/>
<path d="M2558 1003 c7 -3 16 -2 19 1 4 3 -2 6 -13 5 -11 0 -14 -3 -6 -6z"/>
</g>
</svg>
